<svg width="44" height="44" viewBox="0 0 44 44" fill="none" xmlns="http://www.w3.org/2000/svg">
<circle cx="22" cy="22" r="22" fill="url(#paint0_linear_70945_47)"/>
<g clip-path="url(#clip0_70945_47)">
<path d="M15.048 16.0158H29.832C30.8525 16.0158 31.68 15.1884 31.68 14.1678C31.68 13.1472 30.8525 12.3198 29.832 12.3198H15.048C14.0274 12.3198 13.2 13.1472 13.2 14.1678C13.2 15.1884 14.0274 16.0158 15.048 16.0158Z" fill="white"/>
<path d="M29.832 19.7119H15.048C14.0274 19.7119 13.2 20.5393 13.2 21.5599C13.2 22.5805 14.0274 23.4079 15.048 23.4079H29.832C30.8525 23.4079 31.68 22.5805 31.68 21.5599C31.68 20.5393 30.8525 19.7119 29.832 19.7119Z" fill="white"/>
<path d="M29.832 27.104H15.048C14.0274 27.104 13.2 27.9314 13.2 28.952C13.2 29.9726 14.0274 30.8 15.048 30.8H29.832C30.8525 30.8 31.68 29.9726 31.68 28.952C31.68 27.9314 30.8525 27.104 29.832 27.104Z" fill="white"/>
</g>
<defs>
<linearGradient id="paint0_linear_70945_47" x1="4.49724" y1="-4.77973e-06" x2="42.45" y2="2.8289" gradientUnits="userSpaceOnUse">
<stop stop-color="#C89AFC"/>
<stop offset="1" stop-color="#7C6AFA"/>
</linearGradient>
<clipPath id="clip0_70945_47">
<rect width="18.48" height="18.48" fill="white" transform="translate(13.2 12.3198)"/>
</clipPath>
</defs>
</svg>
